<svg xmlns="http://www.w3.org/2000/svg" viewBox="0 0 400 400"><defs><style>.cls-1{fill:#f2f2f2;}</style></defs><g id="Warstwa_2" data-name="Warstwa 2"><g id="ĎŽÓť_1" data-name="ĎŽÓť 1"><path class="cls-1" d="M.58,15.66V13.82l1-1.07,3-3.23a3.93,3.93,0,0,0,1-2.64V1.3h0V0H4.41V1.13A2.71,2.71,0,0,1,3.71,3l-3,3.23V3.57a2.71,2.71,0,0,1,.7-1.85L3,0H1.17L.73.47V0H0V16.23H0A.58.58,0,0,0,.58,15.66ZM.73,9.32a2.75,2.75,0,0,1,.7-1.86l3-3.23V6.88a2.75,2.75,0,0,1-.7,1.86L.73,12Z"/><path class="cls-1" d="M399.28,0V.47L398.85,0H397l1.58,1.72a2.71,2.71,0,0,1,.7,1.85V6.22L396.3,3a2.71,2.71,0,0,1-.7-1.86V0h-1.15V1.13a.91.91,0,0,0,0,.17h0V6.88a3.93,3.93,0,0,0,1,2.64l3,3.23,1,1.07v1.84a.58.58,0,0,0,.57.57V0Zm0,12-3-3.23a2.75,2.75,0,0,1-.7-1.86V4.23l3,3.23a2.75,2.75,0,0,1,.7,1.86Z"/><path class="cls-1" d="M74.46,1.3h0V6.88a3.93,3.93,0,0,0,1,2.64l3,3.23,1,1.07v1.84a.58.58,0,0,0,1.15,0V13.82l1-1.07,3-3.23a3.93,3.93,0,0,0,1-2.64V1.3h0V0H84.41V1.13A2.71,2.71,0,0,1,83.71,3l-3,3.23V3.57a2.71,2.71,0,0,1,.7-1.85L83,0H81.17l-.44.47V0H79.28V.47L78.85,0H77l1.58,1.72a2.71,2.71,0,0,1,.7,1.85V6.22L76.3,3a2.71,2.71,0,0,1-.7-1.86V0H74.45V1.13A.91.91,0,0,0,74.46,1.3Zm6.27,8a2.75,2.75,0,0,1,.7-1.86l3-3.23V6.88a2.75,2.75,0,0,1-.7,1.86l-3,3.23ZM75.6,4.23l3,3.23a2.75,2.75,0,0,1,.7,1.86V12l-3-3.23a2.75,2.75,0,0,1-.7-1.86Z"/><path class="cls-1" d="M314.46,1.3h0V6.88a3.93,3.93,0,0,0,1,2.64l3,3.23,1,1.07v1.84a.58.58,0,0,0,1.15,0V13.82l1-1.07,3-3.23a3.93,3.93,0,0,0,1-2.64V1.3h0V0h-1.15V1.13a2.71,2.71,0,0,1-.7,1.86l-3,3.23V3.57a2.71,2.71,0,0,1,.7-1.85L323,0h-1.84l-.44.47V0h-1.45V.47L318.85,0H317l1.58,1.72a2.71,2.71,0,0,1,.7,1.85V6.22L316.3,3a2.71,2.71,0,0,1-.7-1.86V0h-1.15V1.13A.91.91,0,0,0,314.46,1.3Zm6.27,8a2.75,2.75,0,0,1,.7-1.86l3-3.23V6.88a2.75,2.75,0,0,1-.7,1.86l-3,3.23ZM315.6,4.23l3,3.23a2.75,2.75,0,0,1,.7,1.86V12l-3-3.23a2.75,2.75,0,0,1-.7-1.86Z"/><path class="cls-1" d="M234.46,1.3h0V6.88a3.93,3.93,0,0,0,1,2.64l3,3.23,1,1.07v1.84a.58.58,0,0,0,1.15,0V13.82l1-1.07,3-3.23a3.93,3.93,0,0,0,1-2.64V1.3h0V0h-1.15V1.13a2.71,2.71,0,0,1-.7,1.86l-3,3.23V3.57a2.71,2.71,0,0,1,.7-1.85L243,0h-1.84l-.44.47V0h-1.45V.47L238.85,0H237l1.58,1.72a2.71,2.71,0,0,1,.7,1.85V6.22L236.3,3a2.71,2.71,0,0,1-.7-1.86V0h-1.15V1.13A.91.91,0,0,0,234.46,1.3Zm6.27,8a2.75,2.75,0,0,1,.7-1.86l3-3.23V6.88a2.75,2.75,0,0,1-.7,1.86l-3,3.23ZM235.6,4.23l3,3.23a2.75,2.75,0,0,1,.7,1.86V12l-3-3.23a2.75,2.75,0,0,1-.7-1.86Z"/><path class="cls-1" d="M154.46,1.3h0V6.88c0,.12,0,.25,0,.37a4.29,4.29,0,0,0,.24,1.06A4.78,4.78,0,0,0,155,9a3.87,3.87,0,0,0,.43.57l3,3.23,1,1.07v1.84a.54.54,0,0,0,0,.22.56.56,0,0,0,.53.35h0a.58.58,0,0,0,.32-.1.27.27,0,0,0,.08-.07.59.59,0,0,0,.13-.18.78.78,0,0,0,0-.22V13.82l1-1.07,3-3.23A3.87,3.87,0,0,0,165,9a3.82,3.82,0,0,0,.32-.64,3.88,3.88,0,0,0,.24-1.06,2.3,2.3,0,0,0,0-.37V1.3h0V0h-1.15V1.13a3,3,0,0,1,0,.52l-.06.25a2.71,2.71,0,0,1-.6,1.09l-3,3.23V3.57a2.71,2.71,0,0,1,.7-1.85L163,0h-1.84l-.44.47V0h-1.45V.47L158.85,0H157l1.58,1.72a2.71,2.71,0,0,1,.7,1.85V6.22L156.3,3a2.71,2.71,0,0,1-.7-1.86V0h-1.15V1.13A.91.91,0,0,0,154.46,1.3Zm6.27,8a2.75,2.75,0,0,1,.7-1.86l3-3.23V6.88a3,3,0,0,1,0,.52l-.06.25a2.71,2.71,0,0,1-.6,1.09l-3,3.23ZM155.6,4.23l3,3.23a2.75,2.75,0,0,1,.7,1.86V12l-3-3.23a2.75,2.75,0,0,1-.7-1.86Z"/><path class="cls-1" d="M5.56,395.55h0V389.8l-2,2.16-3,3.23A3.49,3.49,0,0,0,0,396H0v4H.73v-2.17a2.73,2.73,0,0,1,.7-1.86l3-3.23v2.65a2.75,2.75,0,0,1-.7,1.86L1.17,400H3l1.4-1.51V400H5.56v-4.45Z"/><path class="cls-1" d="M1.09,382.57a.57.57,0,0,0-.58.57V391a.58.58,0,0,0,1.15,0v-7.9A.57.57,0,0,0,1.09,382.57Z"/><path class="cls-1" d="M3.24,385.38a.58.58,0,0,0-.57.57v3.12a.58.58,0,0,0,1.15,0V386A.58.58,0,0,0,3.24,385.38Z"/><path class="cls-1" d="M395.6,398.49,397,400h1.85l-2.55-2.75a2.75,2.75,0,0,1-.7-1.86v-2.65l3,3.23a2.73,2.73,0,0,1,.7,1.86V400H400v-4a4,4,0,0,0-.57-.83l-3-3.23-2-2.16v5.59a.86.86,0,0,0,0,.16h0V400h1.15Z"/><path class="cls-1" d="M398.93,382.57a.57.57,0,0,0-.58.57V391a.58.58,0,0,0,1.15,0v-7.9A.57.57,0,0,0,398.93,382.57Z"/><path class="cls-1" d="M396.77,385.38a.58.58,0,0,0-.58.57v3.12a.58.58,0,0,0,1.15,0V386A.58.58,0,0,0,396.77,385.38Z"/><path class="cls-1" d="M85.56,395.55h0V389.8l-2,2.16-3,3.23A3.49,3.49,0,0,0,80,396a3.8,3.8,0,0,0-.58-.84l-3-3.23-2-2.16v5.59a.86.86,0,0,0,0,.16h0V400H75.6v-1.51L77,400h1.85l-2.55-2.75a2.75,2.75,0,0,1-.7-1.86v-2.65l3,3.23a2.73,2.73,0,0,1,.7,1.86V400h1.45v-2.17a2.73,2.73,0,0,1,.7-1.86l3-3.23v2.65a2.75,2.75,0,0,1-.7,1.86L81.17,400H83l1.4-1.51V400h1.15v-4.45Z"/><path class="cls-1" d="M81.09,382.57a.57.57,0,0,0-.58.57V391a.58.58,0,0,0,1.15,0v-7.9A.57.57,0,0,0,81.09,382.57Z"/><path class="cls-1" d="M83.24,385.38a.58.58,0,0,0-.57.57v3.12a.58.58,0,0,0,1.15,0V386A.58.58,0,0,0,83.24,385.38Z"/><path class="cls-1" d="M78.93,382.57a.57.57,0,0,0-.58.57V391a.58.58,0,0,0,1.15,0v-7.9A.57.57,0,0,0,78.93,382.57Z"/><path class="cls-1" d="M76.77,385.38a.58.58,0,0,0-.58.57v3.12a.58.58,0,0,0,1.15,0V386A.58.58,0,0,0,76.77,385.38Z"/><path class="cls-1" d="M325.56,395.55h0V389.8l-2,2.16-3,3.23a3.49,3.49,0,0,0-.58.84,3.8,3.8,0,0,0-.58-.84l-3-3.23-2-2.16v5.59a.86.86,0,0,0,0,.16h0V400h1.15v-1.51L317,400h1.85l-2.55-2.75a2.75,2.75,0,0,1-.7-1.86v-2.65l3,3.23a2.73,2.73,0,0,1,.7,1.86V400h1.45v-2.17a2.73,2.73,0,0,1,.7-1.86l3-3.23v2.65a2.75,2.75,0,0,1-.7,1.86L321.17,400H323l1.4-1.51V400h1.15v-4.45Z"/><path class="cls-1" d="M321.09,382.57a.57.57,0,0,0-.58.57V391a.58.58,0,0,0,1.15,0v-7.9A.57.57,0,0,0,321.09,382.57Z"/><path class="cls-1" d="M323.24,385.38a.58.58,0,0,0-.57.57v3.12a.58.58,0,0,0,1.15,0V386A.58.58,0,0,0,323.24,385.38Z"/><path class="cls-1" d="M318.93,382.57a.57.57,0,0,0-.58.57V391a.58.58,0,0,0,1.15,0v-7.9A.57.57,0,0,0,318.93,382.57Z"/><path class="cls-1" d="M316.77,385.38a.58.58,0,0,0-.58.57v3.12a.58.58,0,0,0,1.15,0V386A.58.58,0,0,0,316.77,385.38Z"/><path class="cls-1" d="M245.56,395.55h0V389.8l-2,2.16-3,3.23a3.49,3.49,0,0,0-.58.84,3.8,3.8,0,0,0-.58-.84l-3-3.23-2-2.16v5.59a.86.86,0,0,0,0,.16h0V400h1.15v-1.51L237,400h1.85l-2.55-2.75a2.75,2.75,0,0,1-.7-1.86v-2.65l3,3.23a2.73,2.73,0,0,1,.7,1.86V400h1.45v-2.17a2.73,2.73,0,0,1,.7-1.86l3-3.23v2.65a2.75,2.75,0,0,1-.7,1.86L241.17,400H243l1.4-1.51V400h1.15v-4.45Z"/><path class="cls-1" d="M241.09,382.57a.57.57,0,0,0-.58.57V391a.58.58,0,0,0,1.15,0v-7.9A.57.57,0,0,0,241.09,382.57Z"/><path class="cls-1" d="M243.24,385.38a.58.58,0,0,0-.57.57v3.12a.58.58,0,0,0,1.15,0V386A.58.58,0,0,0,243.24,385.38Z"/><path class="cls-1" d="M238.93,382.57a.57.57,0,0,0-.58.57V391a.58.58,0,0,0,1.15,0v-7.9A.57.57,0,0,0,238.93,382.57Z"/><path class="cls-1" d="M236.77,385.38a.58.58,0,0,0-.58.57v3.12a.58.58,0,0,0,1.15,0V386A.58.58,0,0,0,236.77,385.38Z"/><path class="cls-1" d="M156.77,385.38a.59.59,0,0,0-.23.05.57.57,0,0,0-.35.52v3.12a.56.56,0,0,0,.58.57.57.57,0,0,0,.57-.57V386A.58.58,0,0,0,156.77,385.38Z"/><path class="cls-1" d="M163.47,385.43a.59.59,0,0,0-.23-.05h-.11a.67.67,0,0,0-.21.09.27.27,0,0,0-.08.07.54.54,0,0,0-.17.4v3.12a.53.53,0,0,0,.17.4.27.27,0,0,0,.08.07.4.4,0,0,0,.21.09h.11a.56.56,0,0,0,.58-.57V386A.57.57,0,0,0,163.47,385.43Z"/><path class="cls-1" d="M165.56,395.55h0V389.8l-2,2.16-3,3.23a3.49,3.49,0,0,0-.58.84,3.8,3.8,0,0,0-.58-.84l-3-3.23-2-2.16v5.59a.86.86,0,0,0,0,.16h0V400h1.15v-1.51L157,400h1.85l-2.55-2.75a2.75,2.75,0,0,1-.7-1.86v-2.65l3,3.23a2.73,2.73,0,0,1,.7,1.86V400h1.45v-2.17a2.73,2.73,0,0,1,.7-1.86l3-3.23v2.65a3,3,0,0,1,0,.52l-.06.25a2.77,2.77,0,0,1-.6,1.09L161.17,400H163l1.4-1.51V400h1.15v-4.45Z"/><path class="cls-1" d="M161.09,382.57h0a.57.57,0,0,0-.58.57V391a.58.58,0,0,0,.58.57h0a.58.58,0,0,0,.57-.57v-7.9A.57.57,0,0,0,161.09,382.57Z"/><path class="cls-1" d="M158.93,382.57h0a.57.57,0,0,0-.58.57V391a.58.58,0,0,0,.58.57h0a.58.58,0,0,0,.57-.57v-7.9A.57.57,0,0,0,158.93,382.57Z"/><path class="cls-1" d="M.58,115.66v-1.84l1-1.07,3-3.23a3.93,3.93,0,0,0,1-2.64V101.3h0V95.55h0V89.8L3.57,92l-3,3.23A3.49,3.49,0,0,0,0,96H0v20.21H0A.58.58,0,0,0,.58,115.66ZM.73,97.83A2.73,2.73,0,0,1,1.43,96l3-3.23v2.65a2.75,2.75,0,0,1-.7,1.86l-3,3.22Zm0,5.74a2.71,2.71,0,0,1,.7-1.85l3-3.23v2.64a2.71,2.71,0,0,1-.7,1.86l-3,3.23Zm0,5.75a2.75,2.75,0,0,1,.7-1.86l3-3.23v2.65a2.75,2.75,0,0,1-.7,1.86L.73,112Z"/><path class="cls-1" d="M1.09,82.57a.57.57,0,0,0-.58.57V91a.58.58,0,0,0,1.15,0v-7.9A.57.57,0,0,0,1.09,82.57Z"/><path class="cls-1" d="M3.24,85.38a.58.58,0,0,0-.57.57v3.12a.58.58,0,0,0,1.15,0V86A.58.58,0,0,0,3.24,85.38Z"/><path class="cls-1" d="M399.43,95.19l-3-3.23-2-2.16v5.59a.86.86,0,0,0,0,.16h0v5.58a.91.91,0,0,0,0,.17h0v5.58a3.93,3.93,0,0,0,1,2.64l3,3.23,1,1.07v1.84a.58.58,0,0,0,.57.57V96A4,4,0,0,0,399.43,95.19ZM399.28,112l-3-3.23a2.75,2.75,0,0,1-.7-1.86v-2.65l3,3.23a2.75,2.75,0,0,1,.7,1.86Zm0-5.75-3-3.23a2.71,2.71,0,0,1-.7-1.86V98.49l3,3.23a2.71,2.71,0,0,1,.7,1.85Zm0-5.75-3-3.22a2.75,2.75,0,0,1-.7-1.86V92.74l3,3.23a2.73,2.73,0,0,1,.7,1.86Z"/><path class="cls-1" d="M398.93,82.57a.57.57,0,0,0-.58.57V91a.58.58,0,0,0,1.15,0v-7.9A.57.57,0,0,0,398.93,82.57Z"/><path class="cls-1" d="M396.77,85.38a.58.58,0,0,0-.58.57v3.12a.58.58,0,0,0,1.15,0V86A.58.58,0,0,0,396.77,85.38Z"/><path class="cls-1" d="M80.59,95.19A3.49,3.49,0,0,0,80,96a3.8,3.8,0,0,0-.58-.84l-3-3.23-2-2.16v5.59a.86.86,0,0,0,0,.16h0v5.58a.91.91,0,0,0,0,.17h0v5.58a3.93,3.93,0,0,0,1,2.64l3,3.23,1,1.07v1.84a.58.58,0,0,0,1.15,0v-1.84l1-1.07,3-3.23a3.93,3.93,0,0,0,1-2.64V101.3h0V95.55h0V89.8l-2,2.16ZM79.28,112l-3-3.23a2.75,2.75,0,0,1-.7-1.86v-2.65l3,3.23a2.75,2.75,0,0,1,.7,1.86Zm0-5.75-3-3.23a2.71,2.71,0,0,1-.7-1.86V98.49l3,3.23a2.71,2.71,0,0,1,.7,1.85Zm0-5.75-3-3.22a2.75,2.75,0,0,1-.7-1.86V92.74l3,3.23a2.73,2.73,0,0,1,.7,1.86Zm5.13,6.41a2.75,2.75,0,0,1-.7,1.86l-3,3.23v-2.65a2.75,2.75,0,0,1,.7-1.86l3-3.23Zm0-5.75a2.71,2.71,0,0,1-.7,1.86l-3,3.23v-2.65a2.71,2.71,0,0,1,.7-1.85l3-3.23Zm0-5.74a2.75,2.75,0,0,1-.7,1.86l-3,3.22V97.83a2.73,2.73,0,0,1,.7-1.86l3-3.23Z"/><path class="cls-1" d="M81.09,82.57a.57.57,0,0,0-.58.57V91a.58.58,0,0,0,1.15,0v-7.9A.57.57,0,0,0,81.09,82.57Z"/><path class="cls-1" d="M83.24,85.38a.58.58,0,0,0-.57.57v3.12a.58.58,0,0,0,1.15,0V86A.58.58,0,0,0,83.24,85.38Z"/><path class="cls-1" d="M78.93,82.57a.57.57,0,0,0-.58.57V91a.58.58,0,0,0,1.15,0v-7.9A.57.57,0,0,0,78.93,82.57Z"/><path class="cls-1" d="M76.77,85.38a.58.58,0,0,0-.58.57v3.12a.58.58,0,0,0,1.15,0V86A.58.58,0,0,0,76.77,85.38Z"/><path class="cls-1" d="M320.59,95.19A3.49,3.49,0,0,0,320,96a3.8,3.8,0,0,0-.58-.84l-3-3.23-2-2.16v5.59a.86.86,0,0,0,0,.16h0v5.58a.91.91,0,0,0,0,.17h0v5.58a3.93,3.93,0,0,0,1,2.64l3,3.23,1,1.07v1.84a.58.58,0,0,0,1.15,0v-1.84l1-1.07,3-3.23a3.93,3.93,0,0,0,1-2.64V101.3h0V95.55h0V89.8l-2,2.16ZM319.28,112l-3-3.23a2.75,2.75,0,0,1-.7-1.86v-2.65l3,3.23a2.75,2.75,0,0,1,.7,1.86Zm0-5.75-3-3.23a2.71,2.71,0,0,1-.7-1.86V98.49l3,3.23a2.71,2.71,0,0,1,.7,1.85Zm0-5.75-3-3.22a2.75,2.75,0,0,1-.7-1.86V92.74l3,3.23a2.73,2.73,0,0,1,.7,1.86Zm5.13,6.41a2.75,2.75,0,0,1-.7,1.86l-3,3.23v-2.65a2.75,2.75,0,0,1,.7-1.86l3-3.23Zm0-5.75a2.71,2.71,0,0,1-.7,1.86l-3,3.23v-2.65a2.71,2.71,0,0,1,.7-1.85l3-3.23Zm0-5.74a2.75,2.75,0,0,1-.7,1.86l-3,3.22V97.83a2.73,2.73,0,0,1,.7-1.86l3-3.23Z"/><path class="cls-1" d="M321.09,82.57a.57.57,0,0,0-.58.57V91a.58.58,0,0,0,1.15,0v-7.9A.57.57,0,0,0,321.09,82.57Z"/><path class="cls-1" d="M323.24,85.38a.58.58,0,0,0-.57.57v3.12a.58.58,0,0,0,1.15,0V86A.58.58,0,0,0,323.24,85.38Z"/><path class="cls-1" d="M318.93,82.57a.57.57,0,0,0-.58.57V91a.58.58,0,0,0,1.15,0v-7.9A.57.57,0,0,0,318.93,82.57Z"/><path class="cls-1" d="M316.77,85.38a.58.58,0,0,0-.58.57v3.12a.58.58,0,0,0,1.15,0V86A.58.58,0,0,0,316.77,85.38Z"/><path class="cls-1" d="M240.59,95.19A3.49,3.49,0,0,0,240,96a3.8,3.8,0,0,0-.58-.84l-3-3.23-2-2.16v5.59a.86.86,0,0,0,0,.16h0v5.58a.91.91,0,0,0,0,.17h0v5.58a3.93,3.93,0,0,0,1,2.64l3,3.23,1,1.07v1.84a.58.58,0,0,0,1.15,0v-1.84l1-1.07,3-3.23a3.93,3.93,0,0,0,1-2.64V101.3h0V95.55h0V89.8l-2,2.16ZM239.28,112l-3-3.23a2.75,2.75,0,0,1-.7-1.86v-2.65l3,3.23a2.75,2.75,0,0,1,.7,1.86Zm0-5.75-3-3.23a2.71,2.71,0,0,1-.7-1.86V98.49l3,3.23a2.71,2.71,0,0,1,.7,1.85Zm0-5.75-3-3.22a2.75,2.75,0,0,1-.7-1.86V92.74l3,3.23a2.73,2.73,0,0,1,.7,1.86Zm5.13,6.41a2.75,2.75,0,0,1-.7,1.86l-3,3.23v-2.65a2.75,2.75,0,0,1,.7-1.86l3-3.23Zm0-5.75a2.71,2.71,0,0,1-.7,1.86l-3,3.23v-2.65a2.71,2.71,0,0,1,.7-1.85l3-3.23Zm0-5.74a2.75,2.75,0,0,1-.7,1.86l-3,3.22V97.83a2.73,2.73,0,0,1,.7-1.86l3-3.23Z"/><path class="cls-1" d="M241.09,82.57a.57.57,0,0,0-.58.57V91a.58.58,0,0,0,1.15,0v-7.9A.57.57,0,0,0,241.09,82.57Z"/><path class="cls-1" d="M243.24,85.38a.58.58,0,0,0-.57.57v3.12a.58.58,0,0,0,1.15,0V86A.58.58,0,0,0,243.24,85.38Z"/><path class="cls-1" d="M238.93,82.57a.57.57,0,0,0-.58.57V91a.58.58,0,0,0,1.15,0v-7.9A.57.57,0,0,0,238.93,82.57Z"/><path class="cls-1" d="M236.77,85.38a.58.58,0,0,0-.58.57v3.12a.58.58,0,0,0,1.15,0V86A.58.58,0,0,0,236.77,85.38Z"/><path class="cls-1" d="M156.77,85.38a.59.59,0,0,0-.23.05.57.57,0,0,0-.35.52v3.12a.56.56,0,0,0,.58.57.57.57,0,0,0,.57-.57V86A.58.58,0,0,0,156.77,85.38Z"/><path class="cls-1" d="M163.47,85.43a.59.59,0,0,0-.23-.05h-.11a.67.67,0,0,0-.21.09.27.27,0,0,0-.08.07.54.54,0,0,0-.17.4v3.12a.53.53,0,0,0,.17.4.27.27,0,0,0,.08.07.4.4,0,0,0,.21.09h.11a.56.56,0,0,0,.58-.57V86A.57.57,0,0,0,163.47,85.43Z"/><path class="cls-1" d="M160.59,95.19A3.49,3.49,0,0,0,160,96a3.8,3.8,0,0,0-.58-.84l-3-3.23-2-2.16v5.59a.86.86,0,0,0,0,.16h0v5.58a.91.91,0,0,0,0,.17h0v5.58c0,.12,0,.25,0,.37a4.29,4.29,0,0,0,.24,1.06,4.78,4.78,0,0,0,.32.64,3.87,3.87,0,0,0,.43.57l3,3.23,1,1.07v1.84a.54.54,0,0,0,0,.22.56.56,0,0,0,.53.35h0a.58.58,0,0,0,.32-.1.27.27,0,0,0,.08-.07.59.59,0,0,0,.13-.18.78.78,0,0,0,0-.22v-1.84l1-1.07,3-3.23A3.87,3.87,0,0,0,165,109a3.82,3.82,0,0,0,.32-.64,3.88,3.88,0,0,0,.24-1.06,2.3,2.3,0,0,0,0-.37V101.3h0V95.55h0V89.8l-2,2.16ZM159.28,112l-3-3.23a2.75,2.75,0,0,1-.7-1.86v-2.65l3,3.23a2.75,2.75,0,0,1,.7,1.86Zm0-5.75-3-3.23a2.71,2.71,0,0,1-.7-1.86V98.49l3,3.23a2.71,2.71,0,0,1,.7,1.85Zm0-5.75-3-3.22a2.75,2.75,0,0,1-.7-1.86V92.74l3,3.23a2.73,2.73,0,0,1,.7,1.86Zm5.13,6.41a3,3,0,0,1,0,.52l-.06.25a2.71,2.71,0,0,1-.6,1.09l-3,3.23v-2.65a2.75,2.75,0,0,1,.7-1.86l3-3.23Zm0-5.75a3,3,0,0,1,0,.52l-.06.25a2.71,2.71,0,0,1-.6,1.09l-3,3.23v-2.65a2.71,2.71,0,0,1,.7-1.85l3-3.23Zm0-5.74a3,3,0,0,1,0,.52l-.06.25a2.77,2.77,0,0,1-.6,1.09l-3,3.22V97.83a2.73,2.73,0,0,1,.7-1.86l3-3.23Z"/><path class="cls-1" d="M161.09,82.57h0a.57.57,0,0,0-.58.57V91a.58.58,0,0,0,.58.57h0a.58.58,0,0,0,.57-.57v-7.9A.57.57,0,0,0,161.09,82.57Z"/><path class="cls-1" d="M158.93,82.57h0a.57.57,0,0,0-.58.57V91a.58.58,0,0,0,.58.57h0a.58.58,0,0,0,.57-.57v-7.9A.57.57,0,0,0,158.93,82.57Z"/><path class="cls-1" d="M.58,215.66v-1.84l1-1.07,3-3.23a3.93,3.93,0,0,0,1-2.64V201.3h0v-5.75h0V189.8l-2,2.16-3,3.23A3.49,3.49,0,0,0,0,196H0v20.21H0A.58.58,0,0,0,.58,215.66Zm.15-17.83a2.73,2.73,0,0,1,.7-1.86l3-3.23v2.65a2.75,2.75,0,0,1-.7,1.86l-3,3.22Zm0,5.74a2.71,2.71,0,0,1,.7-1.85l3-3.23v2.64a2.71,2.71,0,0,1-.7,1.86l-3,3.23Zm0,5.75a2.75,2.75,0,0,1,.7-1.86l3-3.23v2.65a2.75,2.75,0,0,1-.7,1.86L.73,212Z"/><path class="cls-1" d="M1.09,182.57a.57.57,0,0,0-.58.57V191a.58.58,0,0,0,1.15,0v-7.9A.57.57,0,0,0,1.09,182.57Z"/><path class="cls-1" d="M3.24,185.38a.58.58,0,0,0-.57.57v3.12a.58.58,0,0,0,1.15,0V186A.58.58,0,0,0,3.24,185.38Z"/><path class="cls-1" d="M399.43,195.19l-3-3.23-2-2.16v5.59a.86.86,0,0,0,0,.16h0v5.58a.91.91,0,0,0,0,.17h0v5.58a3.93,3.93,0,0,0,1,2.64l3,3.23,1,1.07v1.84a.58.58,0,0,0,.57.57V196A4,4,0,0,0,399.43,195.19ZM399.28,212l-3-3.23a2.75,2.75,0,0,1-.7-1.86v-2.65l3,3.23a2.75,2.75,0,0,1,.7,1.86Zm0-5.75-3-3.23a2.71,2.71,0,0,1-.7-1.86v-2.64l3,3.23a2.71,2.71,0,0,1,.7,1.85Zm0-5.75-3-3.22a2.75,2.75,0,0,1-.7-1.86v-2.65l3,3.23a2.73,2.73,0,0,1,.7,1.86Z"/><path class="cls-1" d="M398.93,182.57a.57.57,0,0,0-.58.57V191a.58.58,0,0,0,1.15,0v-7.9A.57.57,0,0,0,398.93,182.57Z"/><path class="cls-1" d="M396.77,185.38a.58.58,0,0,0-.58.57v3.12a.58.58,0,0,0,1.15,0V186A.58.58,0,0,0,396.77,185.38Z"/><path class="cls-1" d="M80.59,195.19A3.49,3.49,0,0,0,80,196a3.8,3.8,0,0,0-.58-.84l-3-3.23-2-2.16v5.59a.86.86,0,0,0,0,.16h0v5.58a.91.91,0,0,0,0,.17h0v5.58a3.93,3.93,0,0,0,1,2.64l3,3.23,1,1.07v1.84a.58.58,0,0,0,1.15,0v-1.84l1-1.07,3-3.23a3.93,3.93,0,0,0,1-2.64V201.3h0v-5.75h0V189.8l-2,2.16ZM79.28,212l-3-3.23a2.75,2.75,0,0,1-.7-1.86v-2.65l3,3.23a2.75,2.75,0,0,1,.7,1.86Zm0-5.75-3-3.23a2.71,2.71,0,0,1-.7-1.86v-2.64l3,3.23a2.71,2.71,0,0,1,.7,1.85Zm0-5.75-3-3.22a2.75,2.75,0,0,1-.7-1.86v-2.65l3,3.23a2.73,2.73,0,0,1,.7,1.86Zm5.13,6.41a2.75,2.75,0,0,1-.7,1.86l-3,3.23v-2.65a2.75,2.75,0,0,1,.7-1.86l3-3.23Zm0-5.75a2.71,2.71,0,0,1-.7,1.86l-3,3.23v-2.65a2.71,2.71,0,0,1,.7-1.85l3-3.23Zm0-5.74a2.75,2.75,0,0,1-.7,1.86l-3,3.22v-2.64a2.73,2.73,0,0,1,.7-1.86l3-3.23Z"/><path class="cls-1" d="M81.09,182.57a.57.57,0,0,0-.58.57V191a.58.58,0,0,0,1.15,0v-7.9A.57.57,0,0,0,81.09,182.57Z"/><path class="cls-1" d="M83.24,185.38a.58.58,0,0,0-.57.57v3.12a.58.58,0,0,0,1.15,0V186A.58.58,0,0,0,83.24,185.38Z"/><path class="cls-1" d="M78.93,182.57a.57.57,0,0,0-.58.57V191a.58.58,0,0,0,1.15,0v-7.9A.57.57,0,0,0,78.93,182.57Z"/><path class="cls-1" d="M76.77,185.38a.58.58,0,0,0-.58.57v3.12a.58.58,0,0,0,1.15,0V186A.58.58,0,0,0,76.77,185.38Z"/><path class="cls-1" d="M320.59,195.19a3.49,3.49,0,0,0-.58.84,3.8,3.8,0,0,0-.58-.84l-3-3.23-2-2.16v5.59a.86.86,0,0,0,0,.16h0v5.58a.91.91,0,0,0,0,.17h0v5.58a3.93,3.93,0,0,0,1,2.64l3,3.23,1,1.07v1.84a.58.58,0,0,0,1.15,0v-1.84l1-1.07,3-3.23a3.93,3.93,0,0,0,1-2.64V201.3h0v-5.75h0V189.8l-2,2.16ZM319.28,212l-3-3.23a2.75,2.75,0,0,1-.7-1.86v-2.65l3,3.23a2.75,2.75,0,0,1,.7,1.86Zm0-5.75-3-3.23a2.71,2.71,0,0,1-.7-1.86v-2.64l3,3.23a2.71,2.71,0,0,1,.7,1.85Zm0-5.75-3-3.22a2.75,2.75,0,0,1-.7-1.86v-2.65l3,3.23a2.73,2.73,0,0,1,.7,1.86Zm5.13,6.41a2.75,2.75,0,0,1-.7,1.86l-3,3.23v-2.65a2.75,2.75,0,0,1,.7-1.86l3-3.23Zm0-5.75a2.71,2.71,0,0,1-.7,1.86l-3,3.23v-2.65a2.71,2.71,0,0,1,.7-1.85l3-3.23Zm0-5.74a2.75,2.75,0,0,1-.7,1.86l-3,3.22v-2.64a2.73,2.73,0,0,1,.7-1.86l3-3.23Z"/><path class="cls-1" d="M321.09,182.57a.57.57,0,0,0-.58.57V191a.58.58,0,0,0,1.15,0v-7.9A.57.57,0,0,0,321.09,182.57Z"/><path class="cls-1" d="M323.24,185.38a.58.58,0,0,0-.57.57v3.12a.58.58,0,0,0,1.15,0V186A.58.58,0,0,0,323.24,185.38Z"/><path class="cls-1" d="M318.93,182.57a.57.57,0,0,0-.58.57V191a.58.58,0,0,0,1.15,0v-7.9A.57.57,0,0,0,318.93,182.57Z"/><path class="cls-1" d="M316.77,185.38a.58.58,0,0,0-.58.57v3.12a.58.58,0,0,0,1.15,0V186A.58.58,0,0,0,316.77,185.38Z"/><path class="cls-1" d="M240.59,195.19a3.49,3.49,0,0,0-.58.84,3.8,3.8,0,0,0-.58-.84l-3-3.23-2-2.16v5.59a.86.86,0,0,0,0,.16h0v5.58a.91.91,0,0,0,0,.17h0v5.58a3.93,3.93,0,0,0,1,2.64l3,3.23,1,1.07v1.84a.58.58,0,0,0,1.15,0v-1.84l1-1.07,3-3.23a3.93,3.93,0,0,0,1-2.64V201.3h0v-5.75h0V189.8l-2,2.16ZM239.28,212l-3-3.23a2.75,2.75,0,0,1-.7-1.86v-2.65l3,3.23a2.75,2.75,0,0,1,.7,1.86Zm0-5.75-3-3.23a2.71,2.71,0,0,1-.7-1.86v-2.64l3,3.23a2.71,2.71,0,0,1,.7,1.85Zm0-5.75-3-3.22a2.75,2.75,0,0,1-.7-1.86v-2.65l3,3.23a2.73,2.73,0,0,1,.7,1.86Zm5.13,6.41a2.75,2.75,0,0,1-.7,1.86l-3,3.23v-2.65a2.75,2.75,0,0,1,.7-1.86l3-3.23Zm0-5.75a2.71,2.71,0,0,1-.7,1.86l-3,3.23v-2.65a2.71,2.71,0,0,1,.7-1.85l3-3.23Zm0-5.74a2.75,2.75,0,0,1-.7,1.86l-3,3.22v-2.64a2.73,2.73,0,0,1,.7-1.86l3-3.23Z"/><path class="cls-1" d="M241.09,182.57a.57.57,0,0,0-.58.57V191a.58.58,0,0,0,1.15,0v-7.9A.57.57,0,0,0,241.09,182.57Z"/><path class="cls-1" d="M243.24,185.38a.58.58,0,0,0-.57.57v3.12a.58.58,0,0,0,1.15,0V186A.58.58,0,0,0,243.24,185.38Z"/><path class="cls-1" d="M238.93,182.57a.57.57,0,0,0-.58.57V191a.58.58,0,0,0,1.15,0v-7.9A.57.57,0,0,0,238.93,182.57Z"/><path class="cls-1" d="M236.77,185.38a.58.58,0,0,0-.58.57v3.12a.58.58,0,0,0,1.15,0V186A.58.58,0,0,0,236.77,185.38Z"/><path class="cls-1" d="M156.77,185.38a.59.59,0,0,0-.23.05.57.57,0,0,0-.35.52v3.12a.56.56,0,0,0,.58.57.57.57,0,0,0,.57-.57V186A.58.58,0,0,0,156.77,185.38Z"/><path class="cls-1" d="M163.47,185.43a.59.59,0,0,0-.23-.05h-.11a.67.67,0,0,0-.21.09.27.27,0,0,0-.08.07.54.54,0,0,0-.17.4v3.12a.53.53,0,0,0,.17.4.27.27,0,0,0,.08.07.4.4,0,0,0,.21.09h.11a.56.56,0,0,0,.58-.57V186A.57.57,0,0,0,163.47,185.43Z"/><path class="cls-1" d="M160.59,195.19a3.49,3.49,0,0,0-.58.84,3.8,3.8,0,0,0-.58-.84l-3-3.23-2-2.16v5.59a.86.86,0,0,0,0,.16h0v5.58a.91.91,0,0,0,0,.17h0v5.58c0,.12,0,.25,0,.37a4.29,4.29,0,0,0,.24,1.06,4.78,4.78,0,0,0,.32.64,3.87,3.87,0,0,0,.43.57l3,3.23,1,1.07v1.84a.54.54,0,0,0,0,.22.56.56,0,0,0,.53.35h0a.58.58,0,0,0,.32-.1.27.27,0,0,0,.08-.07.59.59,0,0,0,.13-.18.78.78,0,0,0,0-.22v-1.84l1-1.07,3-3.23A3.87,3.87,0,0,0,165,209a3.82,3.82,0,0,0,.32-.64,3.88,3.88,0,0,0,.24-1.06,2.3,2.3,0,0,0,0-.37V201.3h0v-5.75h0V189.8l-2,2.16ZM159.28,212l-3-3.23a2.75,2.75,0,0,1-.7-1.86v-2.65l3,3.23a2.75,2.75,0,0,1,.7,1.86Zm0-5.75-3-3.23a2.71,2.71,0,0,1-.7-1.86v-2.64l3,3.23a2.71,2.71,0,0,1,.7,1.85Zm0-5.75-3-3.22a2.75,2.75,0,0,1-.7-1.86v-2.65l3,3.23a2.73,2.73,0,0,1,.7,1.86Zm5.13,6.41a3,3,0,0,1,0,.52l-.06.25a2.71,2.71,0,0,1-.6,1.09l-3,3.23v-2.65a2.75,2.75,0,0,1,.7-1.86l3-3.23Zm0-5.75a3,3,0,0,1,0,.52l-.06.25a2.71,2.71,0,0,1-.6,1.09l-3,3.23v-2.65a2.71,2.71,0,0,1,.7-1.85l3-3.23Zm0-5.74a3,3,0,0,1,0,.52l-.06.25a2.77,2.77,0,0,1-.6,1.09l-3,3.22v-2.64a2.73,2.73,0,0,1,.7-1.86l3-3.23Z"/><path class="cls-1" d="M161.09,182.57h0a.57.57,0,0,0-.58.57V191a.58.58,0,0,0,.58.57h0a.58.58,0,0,0,.57-.57v-7.9A.57.57,0,0,0,161.09,182.57Z"/><path class="cls-1" d="M158.93,182.57h0a.57.57,0,0,0-.58.57V191a.58.58,0,0,0,.58.57h0a.58.58,0,0,0,.57-.57v-7.9A.57.57,0,0,0,158.93,182.57Z"/><path class="cls-1" d="M.58,315.66v-1.84l1-1.07,3-3.23a3.93,3.93,0,0,0,1-2.64V301.3h0v-5.75h0V289.8l-2,2.16-3,3.23A3.49,3.49,0,0,0,0,296H0v20.21H0A.58.58,0,0,0,.58,315.66Zm.15-17.83a2.73,2.73,0,0,1,.7-1.86l3-3.23v2.65a2.75,2.75,0,0,1-.7,1.86l-3,3.22Zm0,5.74a2.71,2.71,0,0,1,.7-1.85l3-3.23v2.64a2.71,2.71,0,0,1-.7,1.86l-3,3.23Zm0,5.75a2.75,2.75,0,0,1,.7-1.86l3-3.23v2.65a2.75,2.75,0,0,1-.7,1.86L.73,312Z"/><path class="cls-1" d="M1.09,282.57a.57.57,0,0,0-.58.57V291a.58.58,0,0,0,1.15,0v-7.9A.57.57,0,0,0,1.09,282.57Z"/><path class="cls-1" d="M3.24,285.38a.58.58,0,0,0-.57.57v3.12a.58.58,0,0,0,1.15,0V286A.58.58,0,0,0,3.24,285.38Z"/><path class="cls-1" d="M399.43,295.19l-3-3.23-2-2.16v5.59a.86.86,0,0,0,0,.16h0v5.58a.91.91,0,0,0,0,.17h0v5.58a3.93,3.93,0,0,0,1,2.64l3,3.23,1,1.07v1.84a.58.58,0,0,0,.57.57V296A4,4,0,0,0,399.43,295.19ZM399.28,312l-3-3.23a2.75,2.75,0,0,1-.7-1.86v-2.65l3,3.23a2.75,2.75,0,0,1,.7,1.86Zm0-5.75-3-3.23a2.71,2.71,0,0,1-.7-1.86v-2.64l3,3.23a2.71,2.71,0,0,1,.7,1.85Zm0-5.75-3-3.22a2.75,2.75,0,0,1-.7-1.86v-2.65l3,3.23a2.73,2.73,0,0,1,.7,1.86Z"/><path class="cls-1" d="M398.93,282.57a.57.57,0,0,0-.58.57V291a.58.58,0,0,0,1.15,0v-7.9A.57.57,0,0,0,398.93,282.57Z"/><path class="cls-1" d="M396.77,285.38a.58.58,0,0,0-.58.57v3.12a.58.58,0,0,0,1.15,0V286A.58.58,0,0,0,396.77,285.38Z"/><path class="cls-1" d="M80.59,295.19A3.49,3.49,0,0,0,80,296a3.8,3.8,0,0,0-.58-.84l-3-3.23-2-2.16v5.59a.86.86,0,0,0,0,.16h0v5.58a.91.91,0,0,0,0,.17h0v5.58a3.93,3.93,0,0,0,1,2.64l3,3.23,1,1.07v1.84a.58.58,0,0,0,1.15,0v-1.84l1-1.07,3-3.23a3.93,3.93,0,0,0,1-2.64V301.3h0v-5.75h0V289.8l-2,2.16ZM79.28,312l-3-3.23a2.75,2.75,0,0,1-.7-1.86v-2.65l3,3.23a2.75,2.75,0,0,1,.7,1.86Zm0-5.75-3-3.23a2.71,2.71,0,0,1-.7-1.86v-2.64l3,3.23a2.71,2.71,0,0,1,.7,1.85Zm0-5.75-3-3.22a2.75,2.75,0,0,1-.7-1.86v-2.65l3,3.23a2.73,2.73,0,0,1,.7,1.86Zm5.13,6.41a2.75,2.75,0,0,1-.7,1.86l-3,3.23v-2.65a2.75,2.75,0,0,1,.7-1.86l3-3.23Zm0-5.75a2.71,2.71,0,0,1-.7,1.86l-3,3.23v-2.65a2.71,2.71,0,0,1,.7-1.85l3-3.23Zm0-5.74a2.75,2.75,0,0,1-.7,1.86l-3,3.22v-2.64a2.73,2.73,0,0,1,.7-1.86l3-3.23Z"/><path class="cls-1" d="M81.09,282.57a.57.57,0,0,0-.58.57V291a.58.58,0,0,0,1.15,0v-7.9A.57.57,0,0,0,81.09,282.57Z"/><path class="cls-1" d="M83.24,285.38a.58.58,0,0,0-.57.57v3.12a.58.58,0,0,0,1.15,0V286A.58.58,0,0,0,83.24,285.38Z"/><path class="cls-1" d="M78.93,282.57a.57.57,0,0,0-.58.57V291a.58.58,0,0,0,1.15,0v-7.9A.57.57,0,0,0,78.93,282.57Z"/><path class="cls-1" d="M76.77,285.38a.58.58,0,0,0-.58.57v3.12a.58.58,0,0,0,1.15,0V286A.58.58,0,0,0,76.77,285.38Z"/><path class="cls-1" d="M320.59,295.19a3.49,3.49,0,0,0-.58.84,3.8,3.8,0,0,0-.58-.84l-3-3.23-2-2.16v5.59a.86.86,0,0,0,0,.16h0v5.58a.91.91,0,0,0,0,.17h0v5.58a3.93,3.93,0,0,0,1,2.64l3,3.23,1,1.07v1.84a.58.58,0,0,0,1.15,0v-1.84l1-1.07,3-3.23a3.93,3.93,0,0,0,1-2.64V301.3h0v-5.75h0V289.8l-2,2.16ZM319.28,312l-3-3.23a2.75,2.75,0,0,1-.7-1.86v-2.65l3,3.23a2.75,2.75,0,0,1,.7,1.86Zm0-5.75-3-3.23a2.71,2.71,0,0,1-.7-1.86v-2.64l3,3.23a2.71,2.71,0,0,1,.7,1.85Zm0-5.75-3-3.22a2.75,2.75,0,0,1-.7-1.86v-2.65l3,3.23a2.73,2.73,0,0,1,.7,1.86Zm5.13,6.41a2.75,2.75,0,0,1-.7,1.86l-3,3.23v-2.65a2.75,2.75,0,0,1,.7-1.86l3-3.23Zm0-5.75a2.71,2.71,0,0,1-.7,1.86l-3,3.23v-2.65a2.71,2.71,0,0,1,.7-1.85l3-3.23Zm0-5.74a2.75,2.75,0,0,1-.7,1.86l-3,3.22v-2.64a2.73,2.73,0,0,1,.7-1.86l3-3.23Z"/><path class="cls-1" d="M321.09,282.57a.57.57,0,0,0-.58.57V291a.58.58,0,0,0,1.15,0v-7.9A.57.57,0,0,0,321.09,282.57Z"/><path class="cls-1" d="M323.24,285.38a.58.58,0,0,0-.57.57v3.12a.58.58,0,0,0,1.15,0V286A.58.58,0,0,0,323.24,285.38Z"/><path class="cls-1" d="M318.93,282.57a.57.57,0,0,0-.58.57V291a.58.58,0,0,0,1.15,0v-7.9A.57.57,0,0,0,318.93,282.57Z"/><path class="cls-1" d="M316.77,285.38a.58.58,0,0,0-.58.57v3.12a.58.58,0,0,0,1.15,0V286A.58.58,0,0,0,316.77,285.38Z"/><path class="cls-1" d="M240.59,295.19a3.49,3.49,0,0,0-.58.84,3.8,3.8,0,0,0-.58-.84l-3-3.23-2-2.16v5.59a.86.86,0,0,0,0,.16h0v5.58a.91.91,0,0,0,0,.17h0v5.58a3.93,3.93,0,0,0,1,2.64l3,3.23,1,1.07v1.84a.58.58,0,0,0,1.15,0v-1.84l1-1.07,3-3.23a3.93,3.93,0,0,0,1-2.64V301.3h0v-5.75h0V289.8l-2,2.16ZM239.28,312l-3-3.23a2.75,2.75,0,0,1-.7-1.86v-2.65l3,3.23a2.75,2.75,0,0,1,.7,1.86Zm0-5.75-3-3.23a2.71,2.71,0,0,1-.7-1.86v-2.64l3,3.23a2.71,2.71,0,0,1,.7,1.85Zm0-5.75-3-3.22a2.75,2.75,0,0,1-.7-1.86v-2.65l3,3.23a2.73,2.73,0,0,1,.7,1.86Zm5.13,6.41a2.75,2.75,0,0,1-.7,1.86l-3,3.23v-2.65a2.75,2.75,0,0,1,.7-1.86l3-3.23Zm0-5.75a2.71,2.71,0,0,1-.7,1.86l-3,3.23v-2.65a2.71,2.71,0,0,1,.7-1.85l3-3.23Zm0-5.74a2.75,2.75,0,0,1-.7,1.86l-3,3.22v-2.64a2.73,2.73,0,0,1,.7-1.86l3-3.23Z"/><path class="cls-1" d="M241.09,282.57a.57.57,0,0,0-.58.57V291a.58.58,0,0,0,1.15,0v-7.9A.57.57,0,0,0,241.09,282.57Z"/><path class="cls-1" d="M243.24,285.38a.58.58,0,0,0-.57.57v3.12a.58.58,0,0,0,1.15,0V286A.58.58,0,0,0,243.24,285.38Z"/><path class="cls-1" d="M238.93,282.57a.57.57,0,0,0-.58.57V291a.58.58,0,0,0,1.15,0v-7.9A.57.57,0,0,0,238.93,282.57Z"/><path class="cls-1" d="M236.77,285.38a.58.58,0,0,0-.58.57v3.12a.58.58,0,0,0,1.15,0V286A.58.58,0,0,0,236.77,285.38Z"/><path class="cls-1" d="M156.77,285.38a.59.59,0,0,0-.23.05.57.57,0,0,0-.35.52v3.12a.56.56,0,0,0,.58.57.57.57,0,0,0,.57-.57V286A.58.58,0,0,0,156.77,285.38Z"/><path class="cls-1" d="M163.47,285.43a.59.59,0,0,0-.23-.05h-.11a.67.67,0,0,0-.21.09.27.27,0,0,0-.08.07.54.54,0,0,0-.17.4v3.12a.53.53,0,0,0,.17.4.27.27,0,0,0,.08.07.4.4,0,0,0,.21.09h.11a.56.56,0,0,0,.58-.57V286A.57.57,0,0,0,163.47,285.43Z"/><path class="cls-1" d="M160.59,295.19a3.49,3.49,0,0,0-.58.84,3.8,3.8,0,0,0-.58-.84l-3-3.23-2-2.16v5.59a.86.86,0,0,0,0,.16h0v5.58a.91.91,0,0,0,0,.17h0v5.58c0,.12,0,.25,0,.37a4.29,4.29,0,0,0,.24,1.06,4.78,4.78,0,0,0,.32.64,3.87,3.87,0,0,0,.43.57l3,3.23,1,1.07v1.84a.54.54,0,0,0,0,.22.56.56,0,0,0,.53.35h0a.58.58,0,0,0,.32-.1.27.27,0,0,0,.08-.07.59.59,0,0,0,.13-.18.78.78,0,0,0,0-.22v-1.84l1-1.07,3-3.23A3.87,3.87,0,0,0,165,309a3.82,3.82,0,0,0,.32-.64,3.88,3.88,0,0,0,.24-1.06,2.3,2.3,0,0,0,0-.37V301.3h0v-5.75h0V289.8l-2,2.16ZM159.28,312l-3-3.23a2.75,2.75,0,0,1-.7-1.86v-2.65l3,3.23a2.75,2.75,0,0,1,.7,1.86Zm0-5.75-3-3.23a2.71,2.71,0,0,1-.7-1.86v-2.64l3,3.23a2.71,2.71,0,0,1,.7,1.85Zm0-5.75-3-3.22a2.75,2.75,0,0,1-.7-1.86v-2.65l3,3.23a2.73,2.73,0,0,1,.7,1.86Zm5.13,6.41a3,3,0,0,1,0,.52l-.06.25a2.71,2.71,0,0,1-.6,1.09l-3,3.23v-2.65a2.75,2.75,0,0,1,.7-1.86l3-3.23Zm0-5.75a3,3,0,0,1,0,.52l-.06.25a2.71,2.71,0,0,1-.6,1.09l-3,3.23v-2.65a2.71,2.71,0,0,1,.7-1.85l3-3.23Zm0-5.74a3,3,0,0,1,0,.52l-.06.25a2.77,2.77,0,0,1-.6,1.09l-3,3.22v-2.64a2.73,2.73,0,0,1,.7-1.86l3-3.23Z"/><path class="cls-1" d="M161.09,282.57h0a.57.57,0,0,0-.58.57V291a.58.58,0,0,0,.58.57h0a.58.58,0,0,0,.57-.57v-7.9A.57.57,0,0,0,161.09,282.57Z"/><path class="cls-1" d="M158.93,282.57h0a.57.57,0,0,0-.58.57V291a.58.58,0,0,0,.58.57h0a.58.58,0,0,0,.57-.57v-7.9A.57.57,0,0,0,158.93,282.57Z"/><path class="cls-1" d="M40.58,39.88a3.8,3.8,0,0,0-.58.84,3.46,3.46,0,0,0-.57-.84l-3-3.23-2-2.16v5.75h0V46h0v5.59a4,4,0,0,0,1,2.64l3,3.22,1,1.08v1.83a.58.58,0,1,0,1.15,0V58.51l1-1.08,3-3.22a4,4,0,0,0,1-2.64V46h0V40.24h0V34.49l-2,2.16Zm-1.3,16.77-3-3.22a2.75,2.75,0,0,1-.7-1.86V48.92l3,3.23a2.73,2.73,0,0,1,.7,1.86Zm0-5.74-3-3.23a2.73,2.73,0,0,1-.7-1.86V43.17l3,3.23a2.75,2.75,0,0,1,.7,1.86Zm0-5.75-3-3.23a2.71,2.71,0,0,1-.7-1.85V37.43l3,3.23a2.71,2.71,0,0,1,.7,1.85Zm5.13,6.41a2.75,2.75,0,0,1-.7,1.86l-3,3.22V54a2.73,2.73,0,0,1,.7-1.86l3-3.23Zm0-5.75a2.73,2.73,0,0,1-.7,1.86l-3,3.23V48.26a2.75,2.75,0,0,1,.7-1.86l3-3.23Zm0-5.74a2.71,2.71,0,0,1-.7,1.85l-3,3.23V42.51a2.71,2.71,0,0,1,.7-1.85l3-3.23Z"/><path class="cls-1" d="M38.93,27.26a.57.57,0,0,0-.58.57v7.9a.58.58,0,0,0,1.15,0v-7.9A.57.57,0,0,0,38.93,27.26Z"/><path class="cls-1" d="M36.77,30.07a.58.58,0,0,0-.58.57v3.12a.58.58,0,0,0,1.15,0V30.64A.58.58,0,0,0,36.77,30.07Z"/><path class="cls-1" d="M41.08,27.26a.57.57,0,0,0-.57.57v7.9a.58.58,0,0,0,1.15,0v-7.9A.57.57,0,0,0,41.08,27.26Z"/><path class="cls-1" d="M43.24,30.07a.58.58,0,0,0-.57.57v3.12a.58.58,0,0,0,1.15,0V30.64A.58.58,0,0,0,43.24,30.07Z"/><path class="cls-1" d="M40.58,143.82a3.8,3.8,0,0,0-.58.84,3.46,3.46,0,0,0-.57-.84l-3-3.23-2-2.16v5.75h0v5.75h0v5.58a3.93,3.93,0,0,0,1,2.64l3,3.23,1,1.07v1.84a.58.58,0,0,0,1.15,0v-1.84l1-1.07,3-3.23a3.93,3.93,0,0,0,1-2.64v-5.58h0v-5.75h0v-5.75l-2,2.16Zm-1.3,16.78-3-3.23a2.75,2.75,0,0,1-.7-1.86v-2.65l3,3.23a2.75,2.75,0,0,1,.7,1.86Zm0-5.75-3-3.23a2.71,2.71,0,0,1-.7-1.86v-2.64l3,3.23a2.71,2.71,0,0,1,.7,1.85Zm0-5.75-3-3.22a2.75,2.75,0,0,1-.7-1.86v-2.65l3,3.23a2.73,2.73,0,0,1,.7,1.86Zm5.13,6.41a2.75,2.75,0,0,1-.7,1.86l-3,3.23V158a2.75,2.75,0,0,1,.7-1.86l3-3.23Zm0-5.75a2.71,2.71,0,0,1-.7,1.86l-3,3.23V152.2a2.71,2.71,0,0,1,.7-1.85l3-3.23Zm0-5.74a2.75,2.75,0,0,1-.7,1.86l-3,3.22v-2.64a2.73,2.73,0,0,1,.7-1.86l3-3.23Z"/><path class="cls-1" d="M38.93,131.2a.57.57,0,0,0-.58.57v7.9a.58.58,0,0,0,1.15,0v-7.9A.57.57,0,0,0,38.93,131.2Z"/><path class="cls-1" d="M36.77,134a.58.58,0,0,0-.58.57v3.12a.58.58,0,0,0,1.15,0v-3.12A.58.58,0,0,0,36.77,134Z"/><path class="cls-1" d="M41.08,131.2a.57.57,0,0,0-.57.57v7.9a.58.58,0,0,0,1.15,0v-7.9A.57.57,0,0,0,41.08,131.2Z"/><path class="cls-1" d="M43.24,134a.58.58,0,0,0-.57.57v3.12a.58.58,0,0,0,1.15,0v-3.12A.58.58,0,0,0,43.24,134Z"/><path class="cls-1" d="M40.58,247.76a4.05,4.05,0,0,0-.58.84,3.66,3.66,0,0,0-.57-.84l-3-3.23-2-2.15v5.75h0v5.75h0v5.58a3.91,3.91,0,0,0,1,2.64l3,3.23,1,1.07v1.84a.58.58,0,0,0,1.15,0v-1.84l1-1.07,3-3.23a3.91,3.91,0,0,0,1-2.64v-5.58h0v-5.75h0v-5.75l-2,2.15Zm-1.3,16.78-3-3.23a2.73,2.73,0,0,1-.7-1.86v-2.64l3,3.22a2.75,2.75,0,0,1,.7,1.86Zm0-5.75-3-3.23a2.71,2.71,0,0,1-.7-1.85v-2.65l3,3.23a2.71,2.71,0,0,1,.7,1.86Zm0-5.74-3-3.23a2.75,2.75,0,0,1-.7-1.86v-2.65l3,3.23a2.75,2.75,0,0,1,.7,1.86Zm5.13,6.4a2.73,2.73,0,0,1-.7,1.86l-3,3.23v-2.65a2.75,2.75,0,0,1,.7-1.86l3-3.22Zm0-5.74a2.71,2.71,0,0,1-.7,1.85l-3,3.23v-2.64a2.71,2.71,0,0,1,.7-1.86l3-3.23Zm0-5.75a2.75,2.75,0,0,1-.7,1.86l-3,3.23V250.4a2.75,2.75,0,0,1,.7-1.86l3-3.23Z"/><path class="cls-1" d="M38.93,235.14a.58.58,0,0,0-.58.57v7.9a.58.58,0,0,0,1.15,0v-7.9A.58.58,0,0,0,38.93,235.14Z"/><path class="cls-1" d="M36.77,238a.58.58,0,0,0-.58.58v3.11a.58.58,0,0,0,1.15,0v-3.11A.58.58,0,0,0,36.77,238Z"/><path class="cls-1" d="M41.08,235.14a.58.58,0,0,0-.57.57v7.9a.58.58,0,0,0,1.15,0v-7.9A.58.58,0,0,0,41.08,235.14Z"/><path class="cls-1" d="M43.24,238a.58.58,0,0,0-.57.58v3.11a.58.58,0,0,0,1.15,0v-3.11A.58.58,0,0,0,43.24,238Z"/><path class="cls-1" d="M39.5,351.7a3.66,3.66,0,0,0-.57.84,4.05,4.05,0,0,0-.58-.84l-3-3.22-2-2.16v5.75h0v5.75h0v5.58a3.91,3.91,0,0,0,1,2.64l3,3.23,1,1.07v1.84a.58.58,0,0,0,1.15,0v-1.84l1-1.07,3-3.23a3.91,3.91,0,0,0,1-2.64v-5.58h0v-5.75h0v-5.75l-2,2.16Zm-1.3,16.78-3-3.23a2.71,2.71,0,0,1-.7-1.86v-2.64l3,3.23a2.71,2.71,0,0,1,.7,1.85Zm0-5.75-3-3.22a2.75,2.75,0,0,1-.7-1.86V355l3,3.23a2.73,2.73,0,0,1,.7,1.86Zm0-5.74-3-3.23a2.73,2.73,0,0,1-.7-1.86v-2.65l3,3.23a2.75,2.75,0,0,1,.7,1.86Zm5.13,6.4a2.71,2.71,0,0,1-.7,1.86l-3,3.23v-2.65a2.71,2.71,0,0,1,.7-1.85l3-3.23Zm0-5.74a2.75,2.75,0,0,1-.7,1.86l-3,3.22v-2.64a2.73,2.73,0,0,1,.7-1.86l3-3.23Zm0-5.75a2.73,2.73,0,0,1-.7,1.86l-3,3.23v-2.65a2.75,2.75,0,0,1,.7-1.86l3-3.23Z"/><path class="cls-1" d="M37.85,339.08a.58.58,0,0,0-.58.58v7.89a.58.58,0,1,0,1.15,0v-7.89A.58.58,0,0,0,37.85,339.08Z"/><path class="cls-1" d="M35.69,341.89a.58.58,0,0,0-.58.58v3.11a.58.58,0,1,0,1.15,0v-3.11A.58.58,0,0,0,35.69,341.89Z"/><path class="cls-1" d="M40,339.08a.58.58,0,0,0-.58.58v7.89a.58.58,0,1,0,1.15,0v-7.89A.58.58,0,0,0,40,339.08Z"/><path class="cls-1" d="M42.16,341.89a.58.58,0,0,0-.57.58v3.11a.58.58,0,1,0,1.15,0v-3.11A.58.58,0,0,0,42.16,341.89Z"/><path class="cls-1" d="M360.57,39.88a3.46,3.46,0,0,0-.57.84,3.8,3.8,0,0,0-.58-.84l-3-3.23-2-2.16v5.75h0V46h0v5.59a4,4,0,0,0,1,2.64l3,3.22,1,1.08v1.83a.58.58,0,1,0,1.15,0V58.51l1-1.08,3-3.22a4,4,0,0,0,1-2.64V46h0V40.24h0V34.49l-2,2.16Zm-1.3,16.77-3-3.22a2.75,2.75,0,0,1-.7-1.86V48.92l3,3.23a2.73,2.73,0,0,1,.7,1.86Zm0-5.74-3-3.23a2.73,2.73,0,0,1-.7-1.86V43.17l3,3.23a2.75,2.75,0,0,1,.7,1.86Zm0-5.75-3-3.23a2.71,2.71,0,0,1-.7-1.85V37.43l3,3.23a2.71,2.71,0,0,1,.7,1.85Zm5.13,6.41a2.75,2.75,0,0,1-.7,1.86l-3,3.22V54a2.73,2.73,0,0,1,.7-1.86l3-3.23Zm0-5.75a2.73,2.73,0,0,1-.7,1.86l-3,3.23V48.26a2.75,2.75,0,0,1,.7-1.86l3-3.23Zm0-5.74a2.71,2.71,0,0,1-.7,1.85l-3,3.23V42.51a2.71,2.71,0,0,1,.7-1.85l3-3.23Z"/><path class="cls-1" d="M358.92,27.26a.57.57,0,0,0-.58.57v7.9a.58.58,0,0,0,1.15,0v-7.9A.57.57,0,0,0,358.92,27.26Z"/><path class="cls-1" d="M356.76,30.07a.58.58,0,0,0-.58.57v3.12a.58.58,0,0,0,1.15,0V30.64A.58.58,0,0,0,356.76,30.07Z"/><path class="cls-1" d="M361.07,27.26a.57.57,0,0,0-.57.57v7.9a.58.58,0,0,0,1.15,0v-7.9A.57.57,0,0,0,361.07,27.26Z"/><path class="cls-1" d="M363.23,30.07a.58.58,0,0,0-.57.57v3.12a.58.58,0,0,0,1.15,0V30.64A.58.58,0,0,0,363.23,30.07Z"/><path class="cls-1" d="M360.57,143.82a3.46,3.46,0,0,0-.57.84,3.8,3.8,0,0,0-.58-.84l-3-3.23-2-2.16v5.75h0v5.75h0v5.58a3.93,3.93,0,0,0,1,2.64l3,3.23,1,1.07v1.84a.58.58,0,0,0,1.15,0v-1.84l1-1.07,3-3.23a3.93,3.93,0,0,0,1-2.64v-5.58h0v-5.75h0v-5.75l-2,2.16Zm-1.3,16.78-3-3.23a2.75,2.75,0,0,1-.7-1.86v-2.65l3,3.23a2.75,2.75,0,0,1,.7,1.86Zm0-5.75-3-3.23a2.71,2.71,0,0,1-.7-1.86v-2.64l3,3.23a2.71,2.71,0,0,1,.7,1.85Zm0-5.75-3-3.22a2.75,2.75,0,0,1-.7-1.86v-2.65l3,3.23a2.73,2.73,0,0,1,.7,1.86Zm5.13,6.41a2.75,2.75,0,0,1-.7,1.86l-3,3.23V158a2.75,2.75,0,0,1,.7-1.86l3-3.23Zm0-5.75a2.71,2.71,0,0,1-.7,1.86l-3,3.23V152.2a2.71,2.71,0,0,1,.7-1.85l3-3.23Zm0-5.74a2.75,2.75,0,0,1-.7,1.86l-3,3.22v-2.64a2.73,2.73,0,0,1,.7-1.86l3-3.23Z"/><path class="cls-1" d="M358.92,131.2a.57.57,0,0,0-.58.57v7.9a.58.58,0,0,0,1.15,0v-7.9A.57.57,0,0,0,358.92,131.2Z"/><path class="cls-1" d="M356.76,134a.58.58,0,0,0-.58.57v3.12a.58.58,0,0,0,1.15,0v-3.12A.58.58,0,0,0,356.76,134Z"/><path class="cls-1" d="M361.07,131.2a.57.57,0,0,0-.57.57v7.9a.58.58,0,0,0,1.15,0v-7.9A.57.57,0,0,0,361.07,131.2Z"/><path class="cls-1" d="M363.23,134a.58.58,0,0,0-.57.57v3.12a.58.58,0,0,0,1.15,0v-3.12A.58.58,0,0,0,363.23,134Z"/><path class="cls-1" d="M360.57,247.76a3.66,3.66,0,0,0-.57.84,4.05,4.05,0,0,0-.58-.84l-3-3.23-2-2.15v5.75h0v5.75h0v5.58a3.91,3.91,0,0,0,1,2.64l3,3.23,1,1.07v1.84a.58.58,0,0,0,1.15,0v-1.84l1-1.07,3-3.23a3.91,3.91,0,0,0,1-2.64v-5.58h0v-5.75h0v-5.75l-2,2.15Zm-1.3,16.78-3-3.23a2.73,2.73,0,0,1-.7-1.86v-2.64l3,3.22a2.75,2.75,0,0,1,.7,1.86Zm0-5.75-3-3.23a2.71,2.71,0,0,1-.7-1.85v-2.65l3,3.23a2.71,2.71,0,0,1,.7,1.86Zm0-5.74-3-3.23a2.75,2.75,0,0,1-.7-1.86v-2.65l3,3.23a2.75,2.75,0,0,1,.7,1.86Zm5.13,6.4a2.73,2.73,0,0,1-.7,1.86l-3,3.23v-2.65a2.75,2.75,0,0,1,.7-1.86l3-3.22Zm0-5.74a2.71,2.71,0,0,1-.7,1.85l-3,3.23v-2.64a2.71,2.71,0,0,1,.7-1.86l3-3.23Zm0-5.75a2.75,2.75,0,0,1-.7,1.86l-3,3.23V250.4a2.75,2.75,0,0,1,.7-1.86l3-3.23Z"/><path class="cls-1" d="M358.92,235.14a.58.58,0,0,0-.58.57v7.9a.58.58,0,0,0,1.15,0v-7.9A.58.58,0,0,0,358.92,235.14Z"/><path class="cls-1" d="M356.76,238a.58.58,0,0,0-.58.58v3.11a.58.58,0,0,0,1.15,0v-3.11A.58.58,0,0,0,356.76,238Z"/><path class="cls-1" d="M361.07,235.14a.58.58,0,0,0-.57.57v7.9a.58.58,0,0,0,1.15,0v-7.9A.58.58,0,0,0,361.07,235.14Z"/><path class="cls-1" d="M363.23,238a.58.58,0,0,0-.57.58v3.11a.58.58,0,0,0,1.15,0v-3.11A.58.58,0,0,0,363.23,238Z"/><path class="cls-1" d="M359.49,351.7a3.66,3.66,0,0,0-.57.84,4.05,4.05,0,0,0-.58-.84l-3-3.22-2-2.16v5.75h0v5.75h0v5.58a3.91,3.91,0,0,0,1,2.64l3,3.23,1,1.07v1.84a.58.58,0,0,0,1.15,0v-1.84l1-1.07,3-3.23a3.91,3.91,0,0,0,1-2.64v-5.58h0v-5.75h0v-5.75l-2,2.16Zm-1.3,16.78-3-3.23a2.71,2.71,0,0,1-.7-1.86v-2.64l3,3.23a2.71,2.71,0,0,1,.7,1.85Zm0-5.75-3-3.22a2.75,2.75,0,0,1-.7-1.86V355l3,3.23a2.73,2.73,0,0,1,.7,1.86Zm0-5.74-3-3.23a2.73,2.73,0,0,1-.7-1.86v-2.65l3,3.23a2.75,2.75,0,0,1,.7,1.86Zm5.13,6.4a2.71,2.71,0,0,1-.7,1.86l-3,3.23v-2.65a2.71,2.71,0,0,1,.7-1.85l3-3.23Zm0-5.74a2.75,2.75,0,0,1-.7,1.86l-3,3.22v-2.64a2.73,2.73,0,0,1,.7-1.86l3-3.23Zm0-5.75a2.73,2.73,0,0,1-.7,1.86l-3,3.23v-2.65a2.75,2.75,0,0,1,.7-1.86l3-3.23Z"/><path class="cls-1" d="M357.84,339.08a.58.58,0,0,0-.58.58v7.89a.58.58,0,1,0,1.15,0v-7.89A.58.58,0,0,0,357.84,339.08Z"/><path class="cls-1" d="M355.68,341.89a.58.58,0,0,0-.58.58v3.11a.58.58,0,1,0,1.15,0v-3.11A.58.58,0,0,0,355.68,341.89Z"/><path class="cls-1" d="M360,339.08a.58.58,0,0,0-.58.58v7.89a.58.58,0,1,0,1.15,0v-7.89A.58.58,0,0,0,360,339.08Z"/><path class="cls-1" d="M362.15,341.89a.58.58,0,0,0-.57.58v3.11a.58.58,0,1,0,1.15,0v-3.11A.58.58,0,0,0,362.15,341.89Z"/><path class="cls-1" d="M280.58,39.88a3.49,3.49,0,0,0-.58.84,3.8,3.8,0,0,0-.58-.84l-3-3.23-2-2.16v5.59a.86.86,0,0,0,0,.16h0v5.58a1,1,0,0,0,0,.17h0v5.59a4,4,0,0,0,1,2.64l3,3.22,1,1.08v1.83a.58.58,0,1,0,1.15,0V58.51l1-1.08,3-3.22a3.94,3.94,0,0,0,1-2.64V46h0V40.24h0V34.49l-2,2.16Zm-1.3,16.77-3-3.22a2.8,2.8,0,0,1-.7-1.86V48.92l3,3.23a2.74,2.74,0,0,1,.71,1.86Zm0-5.74-3-3.23a2.78,2.78,0,0,1-.7-1.86V43.17l3,3.23a2.76,2.76,0,0,1,.71,1.86Zm0-5.75-3-3.23a2.76,2.76,0,0,1-.7-1.85V37.43l3,3.23a2.72,2.72,0,0,1,.71,1.85Zm5.12,6.41a2.75,2.75,0,0,1-.7,1.86l-3,3.22V54a2.73,2.73,0,0,1,.7-1.86l3-3.23Zm0-5.75a2.73,2.73,0,0,1-.7,1.86l-3,3.23V48.26a2.75,2.75,0,0,1,.7-1.86l3-3.23Zm0-5.74a2.71,2.71,0,0,1-.7,1.85l-3,3.23V42.51a2.71,2.71,0,0,1,.7-1.85l3-3.23Z"/><path class="cls-1" d="M278.92,27.26a.57.57,0,0,0-.58.57v7.9a.58.58,0,0,0,.58.57.57.57,0,0,0,.57-.57v-7.9A.56.56,0,0,0,278.92,27.26Z"/><path class="cls-1" d="M276.76,30.07a.58.58,0,0,0-.58.57v3.12a.58.58,0,0,0,.58.57.57.57,0,0,0,.57-.57V30.64A.57.57,0,0,0,276.76,30.07Z"/><path class="cls-1" d="M281.08,27.26a.57.57,0,0,0-.58.57v7.9a.58.58,0,0,0,1.15,0v-7.9A.57.57,0,0,0,281.08,27.26Z"/><path class="cls-1" d="M283.24,30.07a.58.58,0,0,0-.58.57v3.12a.58.58,0,0,0,1.15,0V30.64A.58.58,0,0,0,283.24,30.07Z"/><path class="cls-1" d="M280.58,143.82a3.49,3.49,0,0,0-.58.84,3.8,3.8,0,0,0-.58-.84l-3-3.23-2-2.16V144a.86.86,0,0,0,0,.16h0v5.58a.91.91,0,0,0,0,.17h0v5.58a3.93,3.93,0,0,0,1,2.64l3,3.23,1,1.07v1.84a.58.58,0,0,0,1.15,0v-1.84l1-1.07,3-3.23a3.92,3.92,0,0,0,1-2.64v-5.58h0v-5.75h0v-5.75l-2,2.16Zm-1.3,16.78-3-3.23a2.8,2.8,0,0,1-.7-1.86v-2.65l3,3.23a2.76,2.76,0,0,1,.71,1.86Zm0-5.75-3-3.23a2.76,2.76,0,0,1-.7-1.86v-2.64l3,3.23a2.72,2.72,0,0,1,.71,1.85Zm0-5.75-3-3.22a2.8,2.8,0,0,1-.7-1.86v-2.65l3,3.23a2.74,2.74,0,0,1,.71,1.86Zm5.12,6.41a2.75,2.75,0,0,1-.7,1.86l-3,3.23V158a2.75,2.75,0,0,1,.7-1.86l3-3.23Zm0-5.75a2.71,2.71,0,0,1-.7,1.86l-3,3.23V152.2a2.71,2.71,0,0,1,.7-1.85l3-3.23Zm0-5.74a2.75,2.75,0,0,1-.7,1.86l-3,3.22v-2.64a2.73,2.73,0,0,1,.7-1.86l3-3.23Z"/><path class="cls-1" d="M278.92,131.2a.57.57,0,0,0-.58.57v7.9a.58.58,0,0,0,.58.57.57.57,0,0,0,.57-.57v-7.9A.56.56,0,0,0,278.92,131.2Z"/><path class="cls-1" d="M276.76,134a.58.58,0,0,0-.58.57v3.12a.57.57,0,0,0,.58.57.56.56,0,0,0,.57-.57v-3.12A.57.57,0,0,0,276.76,134Z"/><path class="cls-1" d="M281.08,131.2a.57.57,0,0,0-.58.57v7.9a.58.58,0,0,0,1.15,0v-7.9A.57.57,0,0,0,281.08,131.2Z"/><path class="cls-1" d="M283.24,134a.58.58,0,0,0-.58.57v3.12a.58.58,0,0,0,1.15,0v-3.12A.58.58,0,0,0,283.24,134Z"/><path class="cls-1" d="M280.58,247.76a3.7,3.7,0,0,0-.58.84,4.05,4.05,0,0,0-.58-.84l-3-3.23-2-2.15V248a1,1,0,0,0,0,.17h0v5.59a.86.86,0,0,0,0,.16h0v5.58a3.91,3.91,0,0,0,1,2.64l3,3.23,1,1.07v1.84a.58.58,0,0,0,1.15,0v-1.84l1-1.07,3-3.23a3.9,3.9,0,0,0,1-2.64v-5.58h0v-5.75h0v-5.75l-2,2.15Zm-1.3,16.78-3-3.23a2.78,2.78,0,0,1-.7-1.86v-2.64l3,3.22a2.76,2.76,0,0,1,.71,1.86Zm0-5.75-3-3.23a2.76,2.76,0,0,1-.7-1.85v-2.65l3,3.23a2.72,2.72,0,0,1,.71,1.86Zm0-5.74-3-3.23a2.8,2.8,0,0,1-.7-1.86v-2.65l3,3.23a2.76,2.76,0,0,1,.71,1.86Zm5.12,6.4a2.73,2.73,0,0,1-.7,1.86l-3,3.23v-2.65a2.75,2.75,0,0,1,.7-1.86l3-3.22Zm0-5.74a2.71,2.71,0,0,1-.7,1.85l-3,3.23v-2.64a2.71,2.71,0,0,1,.7-1.86l3-3.23Zm0-5.75a2.75,2.75,0,0,1-.7,1.86l-3,3.23V250.4a2.75,2.75,0,0,1,.7-1.86l3-3.23Z"/><path class="cls-1" d="M278.92,235.14a.58.58,0,0,0-.58.57v7.9a.57.57,0,0,0,.58.57.56.56,0,0,0,.57-.57v-7.9A.57.57,0,0,0,278.92,235.14Z"/><path class="cls-1" d="M276.76,238a.58.58,0,0,0-.58.58v3.11a.57.57,0,0,0,.58.57.56.56,0,0,0,.57-.57v-3.11A.57.57,0,0,0,276.76,238Z"/><path class="cls-1" d="M281.08,235.14a.58.58,0,0,0-.58.57v7.9a.58.58,0,0,0,1.15,0v-7.9A.58.58,0,0,0,281.08,235.14Z"/><path class="cls-1" d="M283.24,238a.58.58,0,0,0-.58.58v3.11a.58.58,0,0,0,1.15,0v-3.11A.58.58,0,0,0,283.24,238Z"/><path class="cls-1" d="M279.5,351.7a3.7,3.7,0,0,0-.58.84,4.05,4.05,0,0,0-.58-.84l-3-3.22-2-2.16v5.58a1,1,0,0,0,0,.17h0v5.59a.86.86,0,0,0,0,.16h0v5.58a3.91,3.91,0,0,0,1,2.64l3,3.23,1,1.07v1.84a.57.57,0,0,0,.58.57.56.56,0,0,0,.57-.57v-1.84l1-1.07,3-3.23a3.9,3.9,0,0,0,1-2.64v-5.58h0v-5.75h0v-5.75l-2,2.16Zm-1.3,16.78-3-3.23a2.76,2.76,0,0,1-.7-1.86v-2.64l3,3.23a2.72,2.72,0,0,1,.71,1.85Zm0-5.75-3-3.22a2.8,2.8,0,0,1-.7-1.86V355l3,3.23a2.74,2.74,0,0,1,.71,1.86Zm0-5.74-3-3.23a2.78,2.78,0,0,1-.7-1.86v-2.65l3,3.23a2.76,2.76,0,0,1,.71,1.86Zm5.12,6.4a2.71,2.71,0,0,1-.7,1.86l-3,3.23v-2.65a2.71,2.71,0,0,1,.7-1.85l3-3.23Zm0-5.74a2.75,2.75,0,0,1-.7,1.86l-3,3.22v-2.64a2.73,2.73,0,0,1,.7-1.86l3-3.23Zm0-5.75a2.73,2.73,0,0,1-.7,1.86l-3,3.23v-2.65a2.75,2.75,0,0,1,.7-1.86l3-3.23Z"/><path class="cls-1" d="M277.84,339.08a.58.58,0,0,0-.58.58v7.89a.58.58,0,0,0,.58.58.57.57,0,0,0,.57-.58v-7.89A.57.57,0,0,0,277.84,339.08Z"/><path class="cls-1" d="M275.68,341.89a.58.58,0,0,0-.58.58v3.11a.58.58,0,0,0,.58.58.57.57,0,0,0,.57-.58v-3.11A.57.57,0,0,0,275.68,341.89Z"/><path class="cls-1" d="M280,339.08a.58.58,0,0,0-.58.58v7.89a.58.58,0,1,0,1.15,0v-7.89A.58.58,0,0,0,280,339.08Z"/><path class="cls-1" d="M282.16,341.89a.58.58,0,0,0-.58.58v3.11a.58.58,0,1,0,1.15,0v-3.11A.58.58,0,0,0,282.16,341.89Z"/><path class="cls-1" d="M200.58,39.88a3.8,3.8,0,0,0-.58.84,3.8,3.8,0,0,0-.58-.84l-3-3.23-2-2.16v5.75h0V46h0v5.59a3.94,3.94,0,0,0,1,2.64l3,3.22,1,1.08v1.83a.57.57,0,1,0,1.14,0V58.51l1-1.08,3-3.22a3.94,3.94,0,0,0,1-2.64V46h0V40.24h0V34.49l-2,2.16Zm-1.3,16.77-3-3.22a2.76,2.76,0,0,1-.71-1.86V48.92l3,3.23a2.78,2.78,0,0,1,.7,1.86Zm0-5.74-3-3.23a2.74,2.74,0,0,1-.71-1.86V43.17l3,3.23a2.8,2.8,0,0,1,.7,1.86Zm0-5.75-3-3.23a2.72,2.72,0,0,1-.71-1.85V37.43l3,3.23a2.76,2.76,0,0,1,.7,1.85Zm5.13,6.41a2.76,2.76,0,0,1-.71,1.86l-3,3.22V54a2.78,2.78,0,0,1,.7-1.86l3-3.23Zm0-5.75a2.74,2.74,0,0,1-.71,1.86l-3,3.23V48.26a2.8,2.8,0,0,1,.7-1.86l3-3.23Zm0-5.74a2.72,2.72,0,0,1-.71,1.85l-3,3.23V42.51a2.76,2.76,0,0,1,.7-1.85l3-3.23Z"/><path class="cls-1" d="M198.92,27.26a.56.56,0,0,0-.57.57v7.9a.57.57,0,0,0,1.14,0v-7.9A.56.56,0,0,0,198.92,27.26Z"/><path class="cls-1" d="M196.76,30.07a.57.57,0,0,0-.57.57v3.12a.57.57,0,0,0,.57.57.58.58,0,0,0,.58-.57V30.64A.58.58,0,0,0,196.76,30.07Z"/><path class="cls-1" d="M201.08,27.26a.56.56,0,0,0-.57.57v7.9a.57.57,0,1,0,1.14,0v-7.9A.56.56,0,0,0,201.08,27.26Z"/><path class="cls-1" d="M203.24,30.07a.58.58,0,0,0-.58.57v3.12a.58.58,0,0,0,.58.57.57.57,0,0,0,.57-.57V30.64A.57.57,0,0,0,203.24,30.07Z"/><path class="cls-1" d="M200.58,143.82a3.8,3.8,0,0,0-.58.84,3.8,3.8,0,0,0-.58-.84l-3-3.23-2-2.16v5.75h0v5.75h0v5.58a3.92,3.92,0,0,0,1,2.64l3,3.23,1,1.07v1.84a.57.57,0,1,0,1.14,0v-1.84l1-1.07,3-3.23a3.92,3.92,0,0,0,1-2.64v-5.58h0v-5.75h0v-5.75l-2,2.16Zm-1.3,16.78-3-3.23a2.76,2.76,0,0,1-.71-1.86v-2.65l3,3.23a2.8,2.8,0,0,1,.7,1.86Zm0-5.75-3-3.23a2.72,2.72,0,0,1-.71-1.86v-2.64l3,3.23a2.76,2.76,0,0,1,.7,1.85Zm0-5.75-3-3.22a2.76,2.76,0,0,1-.71-1.86v-2.65l3,3.23a2.78,2.78,0,0,1,.7,1.86Zm5.13,6.41a2.76,2.76,0,0,1-.71,1.86l-3,3.23V158a2.8,2.8,0,0,1,.7-1.86l3-3.23Zm0-5.75a2.72,2.72,0,0,1-.71,1.86l-3,3.23V152.2a2.76,2.76,0,0,1,.7-1.85l3-3.23Zm0-5.74a2.76,2.76,0,0,1-.71,1.86l-3,3.22v-2.64a2.78,2.78,0,0,1,.7-1.86l3-3.23Z"/><path class="cls-1" d="M198.92,131.2a.56.56,0,0,0-.57.57v7.9a.57.57,0,1,0,1.14,0v-7.9A.56.56,0,0,0,198.92,131.2Z"/><path class="cls-1" d="M196.76,134a.57.57,0,0,0-.57.57v3.12a.56.56,0,0,0,.57.57.57.57,0,0,0,.58-.57v-3.12A.58.58,0,0,0,196.76,134Z"/><path class="cls-1" d="M201.08,131.2a.56.56,0,0,0-.57.57v7.9a.57.57,0,1,0,1.14,0v-7.9A.56.56,0,0,0,201.08,131.2Z"/><path class="cls-1" d="M203.24,134a.58.58,0,0,0-.58.57v3.12a.57.57,0,0,0,.58.57.56.56,0,0,0,.57-.57v-3.12A.57.57,0,0,0,203.24,134Z"/><path class="cls-1" d="M200.58,247.76a4.05,4.05,0,0,0-.58.84,4.05,4.05,0,0,0-.58-.84l-3-3.23-2-2.15v5.75h0v5.75h0v5.58a3.9,3.9,0,0,0,1,2.64l3,3.23,1,1.07v1.84a.57.57,0,0,0,1.14,0v-1.84l1-1.07,3-3.23a3.9,3.9,0,0,0,1-2.64v-5.58h0v-5.75h0v-5.75l-2,2.15Zm-1.3,16.78-3-3.23a2.74,2.74,0,0,1-.71-1.86v-2.64l3,3.22a2.8,2.8,0,0,1,.7,1.86Zm0-5.75-3-3.23a2.72,2.72,0,0,1-.71-1.85v-2.65l3,3.23a2.76,2.76,0,0,1,.7,1.86Zm0-5.74-3-3.23a2.76,2.76,0,0,1-.71-1.86v-2.65l3,3.23a2.8,2.8,0,0,1,.7,1.86Zm5.13,6.4a2.74,2.74,0,0,1-.71,1.86l-3,3.23v-2.65a2.8,2.8,0,0,1,.7-1.86l3-3.22Zm0-5.74a2.72,2.72,0,0,1-.71,1.85l-3,3.23v-2.64a2.76,2.76,0,0,1,.7-1.86l3-3.23Zm0-5.75a2.76,2.76,0,0,1-.71,1.86l-3,3.23V250.4a2.8,2.8,0,0,1,.7-1.86l3-3.23Z"/><path class="cls-1" d="M198.92,235.14a.57.57,0,0,0-.57.57v7.9a.57.57,0,0,0,1.14,0v-7.9A.57.57,0,0,0,198.92,235.14Z"/><path class="cls-1" d="M196.76,238a.57.57,0,0,0-.57.58v3.11a.56.56,0,0,0,.57.57.57.57,0,0,0,.58-.57v-3.11A.58.58,0,0,0,196.76,238Z"/><path class="cls-1" d="M201.08,235.14a.57.57,0,0,0-.57.57v7.9a.57.57,0,0,0,1.14,0v-7.9A.57.57,0,0,0,201.08,235.14Z"/><path class="cls-1" d="M203.24,238a.58.58,0,0,0-.58.58v3.11a.57.57,0,0,0,.58.57.56.56,0,0,0,.57-.57v-3.11A.57.57,0,0,0,203.24,238Z"/><path class="cls-1" d="M199.5,351.7a4.05,4.05,0,0,0-.58.84,3.7,3.7,0,0,0-.58-.84l-3-3.22-2-2.16v5.75h0v5.75h0v5.58a3.9,3.9,0,0,0,1,2.64l3,3.23,1,1.07v1.84a.57.57,0,1,0,1.14,0v-1.84l1-1.07,3-3.23a3.91,3.91,0,0,0,1-2.64v-5.58h0c0-.05,0-.11,0-.16v-5.59h0c0-.06,0-.11,0-.17v-5.58l-2,2.16Zm-1.3,16.78-3-3.23a2.72,2.72,0,0,1-.71-1.86v-2.64l3,3.23a2.76,2.76,0,0,1,.7,1.85Zm0-5.75-3-3.22a2.76,2.76,0,0,1-.71-1.86V355l3,3.23a2.78,2.78,0,0,1,.7,1.86Zm0-5.74-3-3.23a2.74,2.74,0,0,1-.71-1.86v-2.65l3,3.23a2.8,2.8,0,0,1,.7,1.86Zm5.13,6.4a2.76,2.76,0,0,1-.7,1.86l-3,3.23v-2.65a2.76,2.76,0,0,1,.7-1.85l3-3.23Zm0-5.74a2.8,2.8,0,0,1-.7,1.86l-3,3.22v-2.64a2.78,2.78,0,0,1,.7-1.86l3-3.23Zm0-5.75a2.78,2.78,0,0,1-.7,1.86l-3,3.23v-2.65a2.8,2.8,0,0,1,.7-1.86l3-3.23Z"/><path class="cls-1" d="M197.84,339.08a.57.57,0,0,0-.57.58v7.89a.57.57,0,0,0,.57.58.58.58,0,0,0,.58-.58v-7.89A.58.58,0,0,0,197.84,339.08Z"/><path class="cls-1" d="M195.68,341.89a.57.57,0,0,0-.57.58v3.11a.57.57,0,0,0,.57.58.58.58,0,0,0,.58-.58v-3.11A.58.58,0,0,0,195.68,341.89Z"/><path class="cls-1" d="M200,339.08a.57.57,0,0,0-.57.58v7.89a.57.57,0,1,0,1.14,0v-7.89A.57.57,0,0,0,200,339.08Z"/><path class="cls-1" d="M202.16,341.89a.58.58,0,0,0-.58.58v3.11a.58.58,0,0,0,.58.58.57.57,0,0,0,.57-.58v-3.11A.57.57,0,0,0,202.16,341.89Z"/><path class="cls-1" d="M120.58,39.88a3.8,3.8,0,0,0-.58.84,3.49,3.49,0,0,0-.58-.84l-3-3.23-2-2.16v5.75h0V46h0v5.59a3.94,3.94,0,0,0,1,2.64l3,3.22,1,1.08v1.83a.58.58,0,1,0,1.15,0V58.51l1-1.08,3-3.22a4,4,0,0,0,1-2.64V46h0a1,1,0,0,0,0-.17V40.24h0a.86.86,0,0,0,0-.16V34.49l-2,2.16Zm-1.3,16.77-3-3.22a2.75,2.75,0,0,1-.7-1.86V48.92l3,3.23a2.73,2.73,0,0,1,.7,1.86Zm0-5.74-3-3.23a2.73,2.73,0,0,1-.7-1.86V43.17l3,3.23a2.75,2.75,0,0,1,.7,1.86Zm0-5.75-3-3.23a2.71,2.71,0,0,1-.7-1.85V37.43l3,3.23a2.71,2.71,0,0,1,.7,1.85Zm5.13,6.41a2.75,2.75,0,0,1-.7,1.86l-3,3.22V54a2.74,2.74,0,0,1,.71-1.86l3-3.23Zm0-5.75a2.73,2.73,0,0,1-.7,1.86l-3,3.23V48.26a2.76,2.76,0,0,1,.71-1.86l3-3.23Zm0-5.74a2.71,2.71,0,0,1-.7,1.85l-3,3.23V42.51a2.72,2.72,0,0,1,.71-1.85l3-3.23Z"/><path class="cls-1" d="M118.92,27.26a.57.57,0,0,0-.57.57v7.9a.58.58,0,0,0,1.15,0v-7.9A.57.57,0,0,0,118.92,27.26Z"/><path class="cls-1" d="M116.76,30.07a.58.58,0,0,0-.57.57v3.12a.58.58,0,0,0,1.15,0V30.64A.58.58,0,0,0,116.76,30.07Z"/><path class="cls-1" d="M121.08,27.26a.56.56,0,0,0-.57.57v7.9a.57.57,0,0,0,.57.57.58.58,0,0,0,.58-.57v-7.9A.57.57,0,0,0,121.08,27.26Z"/><path class="cls-1" d="M123.24,30.07a.57.57,0,0,0-.57.57v3.12a.57.57,0,0,0,.57.57.58.58,0,0,0,.58-.57V30.64A.58.58,0,0,0,123.24,30.07Z"/><path class="cls-1" d="M120.58,143.82a3.8,3.8,0,0,0-.58.84,3.49,3.49,0,0,0-.58-.84l-3-3.23-2-2.16v5.75h0v5.75h0v5.58a3.92,3.92,0,0,0,1,2.64l3,3.23,1,1.07v1.84a.58.58,0,0,0,1.15,0v-1.84l1-1.07,3-3.23a3.93,3.93,0,0,0,1-2.64v-5.58h0a.91.91,0,0,0,0-.17v-5.58h0a.86.86,0,0,0,0-.16v-5.59l-2,2.16Zm-1.3,16.78-3-3.23a2.75,2.75,0,0,1-.7-1.86v-2.65l3,3.23a2.75,2.75,0,0,1,.7,1.86Zm0-5.75-3-3.23a2.71,2.71,0,0,1-.7-1.86v-2.64l3,3.23a2.71,2.71,0,0,1,.7,1.85Zm0-5.75-3-3.22a2.75,2.75,0,0,1-.7-1.86v-2.65l3,3.23a2.73,2.73,0,0,1,.7,1.86Zm5.13,6.41a2.75,2.75,0,0,1-.7,1.86l-3,3.23V158a2.76,2.76,0,0,1,.71-1.86l3-3.23Zm0-5.75a2.71,2.71,0,0,1-.7,1.86l-3,3.23V152.2a2.72,2.72,0,0,1,.71-1.85l3-3.23Zm0-5.74a2.75,2.75,0,0,1-.7,1.86l-3,3.22v-2.64a2.74,2.74,0,0,1,.71-1.86l3-3.23Z"/><path class="cls-1" d="M118.92,131.2a.57.57,0,0,0-.57.57v7.9a.58.58,0,0,0,1.15,0v-7.9A.57.57,0,0,0,118.92,131.2Z"/><path class="cls-1" d="M116.76,134a.58.58,0,0,0-.57.57v3.12a.58.58,0,0,0,1.15,0v-3.12A.58.58,0,0,0,116.76,134Z"/><path class="cls-1" d="M121.08,131.2a.56.56,0,0,0-.57.57v7.9a.57.57,0,0,0,.57.57.58.58,0,0,0,.58-.57v-7.9A.57.57,0,0,0,121.08,131.2Z"/><path class="cls-1" d="M123.24,134a.57.57,0,0,0-.57.57v3.12a.56.56,0,0,0,.57.57.57.57,0,0,0,.58-.57v-3.12A.58.58,0,0,0,123.24,134Z"/><path class="cls-1" d="M120.58,247.76a4.05,4.05,0,0,0-.58.84,3.7,3.7,0,0,0-.58-.84l-3-3.23-2-2.15v5.75h0v5.75h0v5.58a3.9,3.9,0,0,0,1,2.64l3,3.23,1,1.07v1.84a.58.58,0,0,0,1.15,0v-1.84l1-1.07,3-3.23a3.91,3.91,0,0,0,1-2.64v-5.58h0a.86.86,0,0,0,0-.16v-5.59h0a1,1,0,0,0,0-.17v-5.58l-2,2.15Zm-1.3,16.78-3-3.23a2.73,2.73,0,0,1-.7-1.86v-2.64l3,3.22a2.75,2.75,0,0,1,.7,1.86Zm0-5.75-3-3.23a2.71,2.71,0,0,1-.7-1.85v-2.65l3,3.23a2.71,2.71,0,0,1,.7,1.86Zm0-5.74-3-3.23a2.75,2.75,0,0,1-.7-1.86v-2.65l3,3.23a2.75,2.75,0,0,1,.7,1.86Zm5.13,6.4a2.73,2.73,0,0,1-.7,1.86l-3,3.23v-2.65a2.76,2.76,0,0,1,.71-1.86l3-3.22Zm0-5.74a2.71,2.71,0,0,1-.7,1.85l-3,3.23v-2.64a2.72,2.72,0,0,1,.71-1.86l3-3.23Zm0-5.75a2.75,2.75,0,0,1-.7,1.86l-3,3.23V250.4a2.76,2.76,0,0,1,.71-1.86l3-3.23Z"/><path class="cls-1" d="M118.92,235.14a.58.58,0,0,0-.57.57v7.9a.58.58,0,0,0,1.15,0v-7.9A.58.58,0,0,0,118.92,235.14Z"/><path class="cls-1" d="M116.76,238a.58.58,0,0,0-.57.58v3.11a.58.58,0,0,0,1.15,0v-3.11A.58.58,0,0,0,116.76,238Z"/><path class="cls-1" d="M121.08,235.14a.57.57,0,0,0-.57.57v7.9a.56.56,0,0,0,.57.57.57.57,0,0,0,.58-.57v-7.9A.58.58,0,0,0,121.08,235.14Z"/><path class="cls-1" d="M123.24,238a.57.57,0,0,0-.57.58v3.11a.56.56,0,0,0,.57.57.57.57,0,0,0,.58-.57v-3.11A.58.58,0,0,0,123.24,238Z"/><path class="cls-1" d="M119.5,351.7a4.05,4.05,0,0,0-.58.84,3.7,3.7,0,0,0-.58-.84l-3-3.22-2-2.16v5.75h0v5.75h0v5.58a3.9,3.9,0,0,0,1,2.64l3,3.23,1,1.07v1.84a.58.58,0,0,0,1.15,0v-1.84l1-1.07,3-3.23a3.91,3.91,0,0,0,1-2.64v-5.58h0a.86.86,0,0,0,0-.16v-5.59h0a1,1,0,0,0,0-.17v-5.58l-2,2.16Zm-1.3,16.78-3-3.23a2.71,2.71,0,0,1-.7-1.86v-2.64l3,3.23a2.71,2.71,0,0,1,.7,1.85Zm0-5.75-3-3.22a2.75,2.75,0,0,1-.7-1.86V355l3,3.23a2.73,2.73,0,0,1,.7,1.86Zm0-5.74-3-3.23a2.73,2.73,0,0,1-.7-1.86v-2.65l3,3.23a2.75,2.75,0,0,1,.7,1.86Zm5.13,6.4a2.71,2.71,0,0,1-.7,1.86l-3,3.23v-2.65a2.71,2.71,0,0,1,.7-1.85l3-3.23Zm0-5.74a2.75,2.75,0,0,1-.7,1.86l-3,3.22v-2.64a2.73,2.73,0,0,1,.7-1.86l3-3.23Zm0-5.75a2.73,2.73,0,0,1-.7,1.86l-3,3.23v-2.65a2.75,2.75,0,0,1,.7-1.86l3-3.23Z"/><path class="cls-1" d="M117.84,339.08a.58.58,0,0,0-.57.58v7.89a.58.58,0,1,0,1.15,0v-7.89A.58.58,0,0,0,117.84,339.08Z"/><path class="cls-1" d="M115.68,341.89a.58.58,0,0,0-.57.58v3.11a.58.58,0,1,0,1.15,0v-3.11A.58.58,0,0,0,115.68,341.89Z"/><path class="cls-1" d="M120,339.08a.58.58,0,0,0-.57.58v7.89a.58.58,0,1,0,1.15,0v-7.89A.58.58,0,0,0,120,339.08Z"/><path class="cls-1" d="M122.16,341.89a.57.57,0,0,0-.57.58v3.11a.57.57,0,0,0,.57.58.58.58,0,0,0,.58-.58v-3.11A.58.58,0,0,0,122.16,341.89Z"/></g></g></svg>